<svg width="73" height="72" viewBox="0 0 73 72" fill="none" xmlns="http://www.w3.org/2000/svg">
<path d="M53.8568 16.3291H19.1426V20.9577H53.8568V16.3291Z" fill="#F0FFFF"/>
<path d="M58.4861 20.957H14.5146V25.5856H58.4861V20.957Z" fill="#F0FFFF"/>
<path d="M49.2286 11.7002H23.7715V16.3288H49.2286V11.7002Z" fill="#F0FFFF"/>
<path d="M59.6429 25.5859H13.3572C11.44 25.5859 9.88574 27.1401 9.88574 29.0574V56.8288C9.88574 58.746 11.44 60.3002 13.3572 60.3002H59.6429C61.5601 60.3002 63.1143 58.746 63.1143 56.8288V29.0574C63.1143 27.1401 61.5601 25.5859 59.6429 25.5859Z" fill="#F0FFFF"/>
<path d="M59.6429 25.5859H13.3572C11.44 25.5859 9.88574 27.1401 9.88574 29.0574V56.8288C9.88574 58.746 11.44 60.3002 13.3572 60.3002H59.6429C61.5601 60.3002 63.1143 58.746 63.1143 56.8288V29.0574C63.1143 27.1401 61.5601 25.5859 59.6429 25.5859Z" stroke="#00303E" stroke-linecap="round" stroke-linejoin="round"/>
<path d="M56.1712 32.5283H46.9141V41.7855H56.1712V32.5283Z" stroke="#11B2A8" stroke-linecap="round" stroke-linejoin="round"/>
<path d="M19.1426 34.8428H23.7711" stroke="#11B2A8" stroke-linecap="round" stroke-linejoin="round"/>
<path d="M19.1426 46.4072H39.9711" stroke="#11B2A8" stroke-linecap="round" stroke-linejoin="round"/>
<path d="M19.1426 53.3574H46.914" stroke="#11B2A8" stroke-linecap="round" stroke-linejoin="round"/>
<path d="M14.5146 20.957H58.4861" stroke="#00303E" stroke-linecap="round" stroke-linejoin="round"/>
<path d="M19.1426 16.3291H53.8568" stroke="#00303E" stroke-linecap="round" stroke-linejoin="round"/>
<path d="M23.7715 11.7002H49.2286" stroke="#00303E" stroke-linecap="round" stroke-linejoin="round"/>
</svg>
