<svg width="72" height="72" viewBox="0 0 72 72" fill="none" xmlns="http://www.w3.org/2000/svg">
<path d="M63 13.6956C63 12.4503 62.5052 11.2559 61.6246 10.3753C60.744 9.49472 59.5497 9 58.3043 9H13.6956C12.4503 9 11.2559 9.49472 10.3753 10.3753C9.49472 11.2559 9 12.4503 9 13.6956V20.7391H63V13.6956Z" fill="#F0FFFF"/>
<path d="M30.1304 63H13.6956C12.4503 63 11.2559 62.5052 10.3753 61.6246C9.49472 60.744 9 59.5497 9 58.3043V13.6956C9 12.4503 9.49472 11.2559 10.3753 10.3753C11.2559 9.49472 12.4503 9 13.6956 9H58.3043C59.5497 9 60.744 9.49472 61.6246 10.3753C62.5052 11.2559 63 12.4503 63 13.6956V44.2174" stroke="#212A34" stroke-width="0.8125" stroke-linecap="round" stroke-linejoin="round"/>
<path d="M24.26 39.52C26.205 39.52 27.7818 37.9433 27.7818 35.9983C27.7818 34.0533 26.205 32.4766 24.26 32.4766C22.315 32.4766 20.7383 34.0533 20.7383 35.9983C20.7383 37.9433 22.315 39.52 24.26 39.52Z" stroke="#11B2A8" stroke-width="0.8125" stroke-linecap="round" stroke-linejoin="round"/>
<path d="M30.1305 46.5659H18.3914C18.25 44.8566 18.7861 43.1601 19.8841 41.8425C20.9822 40.5248 22.5541 39.6916 24.261 39.5225C25.9678 39.6916 27.5398 40.5248 28.6378 41.8425C29.7358 43.1601 30.272 44.8566 30.1305 46.5659Z" stroke="#11B2A8" stroke-width="0.8125" stroke-linecap="round" stroke-linejoin="round"/>
<path d="M17.2159 14.2803C17.3319 14.2803 17.4452 14.3146 17.5417 14.379C17.6382 14.4434 17.7134 14.535 17.7579 14.6421C17.8024 14.7492 17.8142 14.8671 17.7917 14.9809C17.7693 15.0947 17.7136 15.1993 17.6317 15.2814C17.5499 15.3636 17.4455 15.4197 17.3318 15.4426C17.2181 15.4655 17.1002 15.4542 16.9929 15.4102C16.8856 15.3661 16.7937 15.2912 16.729 15.195C16.6642 15.0988 16.6294 14.9856 16.6289 14.8696C16.6286 14.7923 16.6436 14.7157 16.6729 14.6442C16.7023 14.5728 16.7455 14.5078 16.8 14.453C16.8545 14.3983 16.9193 14.3548 16.9907 14.3252C17.0621 14.2955 17.1386 14.2803 17.2159 14.2803" stroke="#11B2A8" stroke-width="0.8125" stroke-linecap="round" stroke-linejoin="round"/>
<path d="M24.2608 14.2803C24.3768 14.2803 24.4902 14.3146 24.5866 14.379C24.6831 14.4434 24.7583 14.535 24.8028 14.6421C24.8473 14.7492 24.8591 14.8671 24.8366 14.9809C24.8142 15.0947 24.7585 15.1993 24.6767 15.2814C24.5948 15.3636 24.4904 15.4197 24.3767 15.4426C24.263 15.4655 24.1451 15.4542 24.0378 15.4102C23.9305 15.3661 23.8387 15.2912 23.7739 15.195C23.7091 15.0988 23.6743 14.9856 23.6738 14.8696C23.6735 14.7923 23.6885 14.7157 23.7178 14.6442C23.7472 14.5728 23.7904 14.5078 23.8449 14.453C23.8995 14.3983 23.9643 14.3548 24.0356 14.3252C24.107 14.2955 24.1835 14.2803 24.2608 14.2803" stroke="#11B2A8" stroke-width="0.8125" stroke-linecap="round" stroke-linejoin="round"/>
<path d="M31.3018 14.2803C31.4178 14.2803 31.5312 14.3146 31.6276 14.379C31.7241 14.4434 31.7994 14.535 31.8438 14.6421C31.8883 14.7492 31.9001 14.8671 31.8776 14.9809C31.8552 15.0947 31.7995 15.1993 31.7177 15.2814C31.6358 15.3636 31.5314 15.4197 31.4177 15.4426C31.304 15.4655 31.1861 15.4542 31.0788 15.4102C30.9715 15.3661 30.8797 15.2912 30.8149 15.195C30.7501 15.0988 30.7153 14.9856 30.7148 14.8696C30.7148 14.7139 30.7767 14.5646 30.8868 14.4545C30.9968 14.3445 31.1461 14.2826 31.3018 14.2826" stroke="#11B2A8" stroke-width="0.8125" stroke-linecap="round" stroke-linejoin="round"/>
<path d="M60.6513 63.0001V56.7384C60.6507 54.6632 59.8261 52.6732 58.3587 51.2058C56.8913 49.7384 54.9012 48.9137 52.826 48.9131H48.9122V38.3479C48.9122 37.4139 48.5412 36.5181 47.8807 35.8577C47.2203 35.1972 46.3245 34.8262 45.3905 34.8262C44.4565 34.8262 43.5607 35.1972 42.9002 35.8577C42.2398 36.5181 41.8687 37.4139 41.8687 38.3479V54.7827L38.8424 52.247C38.3443 51.6486 37.6288 51.2726 36.8534 51.2017C36.0781 51.1309 35.3063 51.3709 34.7079 51.869C34.1095 52.3672 33.7335 53.0826 33.6626 53.858C33.5917 54.6334 33.8317 55.4052 34.3299 56.0036L40.1501 63.0001" stroke="#212A34" stroke-width="0.8125" stroke-linecap="round" stroke-linejoin="round"/>
<path d="M31.3038 27.7803H17.2169C16.5685 27.7803 16.043 28.3059 16.043 28.9542V45.3889C16.043 46.0373 16.5685 46.5629 17.2169 46.5629H31.3038C31.9522 46.5629 32.4777 46.0373 32.4777 45.3889V28.9542C32.4777 28.3059 31.9522 27.7803 31.3038 27.7803Z" stroke="#212A34" stroke-width="0.8125" stroke-linecap="round" stroke-linejoin="round"/>
</svg>
