<svg width="72" height="72" viewBox="0 0 72 72" fill="none" xmlns="http://www.w3.org/2000/svg">
<path d="M28.6004 14.4004H16.4004C15.2958 14.4004 14.4004 15.2958 14.4004 16.4004V28.6004C14.4004 29.705 15.2958 30.6004 16.4004 30.6004H28.6004C29.705 30.6004 30.6004 29.705 30.6004 28.6004V16.4004C30.6004 15.2958 29.705 14.4004 28.6004 14.4004Z" stroke="#11B2A8" stroke-linecap="round" stroke-linejoin="round"/>
<path d="M55.6004 14.4004H43.4004C42.2958 14.4004 41.4004 15.2958 41.4004 16.4004V28.6004C41.4004 29.705 42.2958 30.6004 43.4004 30.6004H55.6004C56.705 30.6004 57.6004 29.705 57.6004 28.6004V16.4004C57.6004 15.2958 56.705 14.4004 55.6004 14.4004Z" stroke="#00303E" stroke-linecap="round" stroke-linejoin="round"/>
<path d="M55.6004 41.4004H43.4004C42.2958 41.4004 41.4004 42.2958 41.4004 43.4004V55.6004C41.4004 56.705 42.2958 57.6004 43.4004 57.6004H55.6004C56.705 57.6004 57.6004 56.705 57.6004 55.6004V43.4004C57.6004 42.2958 56.705 41.4004 55.6004 41.4004Z" stroke="#00303E" stroke-linecap="round" stroke-linejoin="round"/>
<path d="M28.6004 41.4004H16.4004C15.2958 41.4004 14.4004 42.2958 14.4004 43.4004V55.6004C14.4004 56.705 15.2958 57.6004 16.4004 57.6004H28.6004C29.705 57.6004 30.6004 56.705 30.6004 55.6004V43.4004C30.6004 42.2958 29.705 41.4004 28.6004 41.4004Z" stroke="#00303E" stroke-linecap="round" stroke-linejoin="round"/>
</svg>
