<svg width="72" height="72" viewBox="0 0 72 72" fill="none" xmlns="http://www.w3.org/2000/svg">
<path d="M42.7553 28.4043L39.9473 29.3223" stroke="#212A34" stroke-linecap="round" stroke-linejoin="round"/>
<path d="M58.9507 27.5405V42.2096C58.9505 42.8432 58.7292 43.4569 58.3251 43.9448C57.9209 44.4328 57.3591 44.7644 56.7367 44.8826L50.8507 45.9626H40.8337L41.5357 41.7506L46.1527 40.9676L46.9627 36.3506L39.9427 29.3306L31.6267 32.0576C31.1682 32.2104 30.6706 32.1967 30.2212 32.0189C29.7718 31.8412 29.3995 31.5107 29.1697 31.0856C28.9375 30.6597 28.859 30.1668 28.9476 29.6898C29.0361 29.2128 29.2861 28.7809 29.6557 28.4666L34.8397 24.2276L39.5647 20.3396C40.1189 19.877 40.7877 19.5726 41.5005 19.4586C42.2134 19.3445 42.9438 19.425 43.6147 19.6916L57.2227 25.0376C57.7301 25.231 58.1669 25.5738 58.4754 26.0207C58.784 26.4675 58.9497 26.9975 58.9507 27.5405Z" stroke="#212A34" stroke-linecap="round" stroke-linejoin="round"/>
<path d="M46.9672 36.343L46.1572 40.96L41.5402 41.743L40.8382 45.955H40.8112L40.7572 46.36L36.1402 47.143L35.6812 49.897C35.5789 50.4436 35.3121 50.946 34.9164 51.3369C34.5207 51.7277 34.0151 51.9884 33.4672 52.084L32.1172 52.327C31.6896 52.3963 31.2517 52.364 30.8389 52.2326C30.4262 52.1013 30.0501 51.8746 29.7412 51.571L20.0698 41.905L13.0498 40.555V24.355L19.7998 23.005L27.8998 19.63C28.3944 19.4287 28.9374 19.3777 29.4608 19.4834C29.9843 19.589 30.465 19.8466 30.8428 20.224L34.8388 24.22L29.6548 28.459C29.2853 28.7732 29.0352 29.2052 28.9467 29.6822C28.8582 30.1591 28.9366 30.652 29.1688 31.078C29.3987 31.503 29.771 31.8335 30.2203 32.0113C30.6697 32.189 31.1673 32.2027 31.6258 32.05L39.9418 29.323L46.9672 36.343Z" stroke="#212A34" stroke-linecap="round" stroke-linejoin="round"/>
<path d="M4.9502 20.2939H10.3502C11.0663 20.2939 11.753 20.5784 12.2594 21.0848C12.7657 21.5911 13.0502 22.2779 13.0502 22.9939V41.8939C13.0502 42.61 12.7657 43.2968 12.2594 43.8031C11.753 44.3095 11.0663 44.5939 10.3502 44.5939H4.9502V20.2939Z" stroke="#11B2A8" stroke-linecap="round" stroke-linejoin="round"/>
<path d="M61.6502 22.9941H67.0502V47.2941H61.6502C60.9341 47.2941 60.2474 47.0097 59.741 46.5033C59.2347 45.997 58.9502 45.3102 58.9502 44.5941V25.6941C58.9502 24.9781 59.2347 24.2913 59.741 23.785C60.2474 23.2786 60.9341 22.9941 61.6502 22.9941V22.9941Z" stroke="#11B2A8" stroke-linecap="round" stroke-linejoin="round"/>
</svg>
