<?xml version="1.0" encoding="UTF-8"?>
<svg width="600px" height="205px" viewBox="0 0 600 205" version="1.1" xmlns="http://www.w3.org/2000/svg" xmlns:xlink="http://www.w3.org/1999/xlink">
    <!-- Generator: Sketch 61 (89581) - https://sketch.com -->
    <title>GrizzlyForce_Logo-Horizontal_LightBackground</title>
    <desc>Created with Sketch.</desc>
    <g id="GrizzlyForce_Logo-Horizontal_LightBackground" stroke="none" stroke-width="1" fill="none" fill-rule="evenodd">
        <g id="GrizzlyForce_Logo-Horizontal_Black_1" transform="translate(0.000000, -0.539514)" fill="#000000">
            <path d="M109.854389,69.8360113 C116.315787,67.1296284 122.718827,64.6785645 129.49755,62.9515129 C137.224602,60.9837317 139.61366,61.3776527 139.61366,61.3776527 C139.61366,61.3776527 142.675666,69.8360113 135.621562,76.525373 C126.174754,85.5199019 111.513963,74.2749171 109.854389,69.8360113 M170.89755,25.3448259 C169.473234,36.0044004 159.771106,36.3983214 159.771106,36.3983214 C159.771106,36.3983214 168.627033,29.5922424 165.143751,20.0761329 C161.687824,10.5618472 154.870802,11.3314521 154.870802,11.3314521 C157.794207,10.1460417 162.103629,10.2426983 165.185696,12.1904186 C168.761988,14.4645828 171.667155,19.6220296 170.89755,25.3448259 M72.6306808,18.9618472 C81.4246018,24.1357074 90.1893434,35.8056162 91.1376717,51.5059202 C88.9838723,51.3308442 86.0896473,51.0044004 82.2051489,50.4299323 C69.1638115,48.513215 51.2185227,39.0682302 51.2185227,39.0682302 C54.7364559,52.5454338 80.3084923,65.5302363 79.21062,65.8639749 C67.3747537,69.5788685 58.3911671,59.1837317 41.9996777,61.4378351 C41.3559087,61.525373 37.7030212,79.9338837 57.4318966,83.6888989 C57.3735379,83.769142 57.3078844,83.838443 57.2677628,83.9077439 C50.0841762,94.0439141 47.8720182,107.087075 48.4939027,120.960024 C37.2671549,117.660935 22.3273373,106.89741 15.3315926,87.3363153 C15.3698905,85.3594156 15.4501337,83.2366193 15.5486139,80.9423943 C16.754085,55.5782606 30.141927,40.0147348 30.141927,40.0147348 C30.141927,40.0147348 19.8179148,36.4785645 16.2306808,28.8208138 C12.641623,21.163063 17.7024133,14.2840357 25.123082,12.9709658 C28.0574285,12.4475615 32.0787051,13.0019688 35.804541,14.956984 C38.7279452,16.4998411 41.6130516,18.4347955 43.9546929,20.5594156 C39.2039331,24.6809962 37.8306808,31.0147348 37.8306808,31.0147348 C45.1236899,24.8487773 51.5340242,22.5162545 60.1802249,20.1545524 C64.2233859,19.6311481 68.4908632,19.1788685 72.1072765,18.9782606 C72.2841762,18.9673183 72.4829604,18.8706618 72.6306808,18.9618472 M62.1753616,141.662759 C62.1753616,141.662759 73.0574285,148.915647 82.241623,152.699841 L83.6987659,159.653641 C79.5188267,158.953337 75.2203464,157.895586 71.0622917,156.680996 C66.9990698,151.089507 63.5704984,145.368534 62.1753616,141.662759 M91.1376717,115.04209 C89.2993738,115.023853 86.9486139,114.991027 84.0033252,114.934492 C66.5923829,114.587987 75.685392,128.273093 82.1650273,138.301665 C75.4592522,135.575221 68.8847841,132.451209 62.5218662,129.053641 C58.4714103,118.383124 57.829465,107.375221 60.9826565,96.969142 C64.9328084,83.9278047 78.6179148,71.6159506 78.6179148,71.6159506 C78.6179148,71.6159506 72.5996777,96.2578958 91.1376717,115.04209 M49.0866078,9.56245512 C49.0866078,9.56245512 29.4124437,-8.7968154 10.429465,5.36245512 C-2.87083897,15.2852515 0.351653426,35.400753 12.3461823,44.125373 C12.5048449,44.2347955 12.9899513,44.125373 12.8805288,44.2730934 C-11.9602007,80.8749171 6.77475373,128.95516 6.77475373,128.95516 L15.5486139,128.431756 C15.8951185,128.413519 21.1401033,150.040875 42.8695866,171.848777 C57.1091002,186.148473 91.1376717,205.848169 91.1376717,204.613519 C107.737064,182.017774 119.379617,156.761239 118.449526,119.812911 C118.449526,119.812911 130.898158,144.706528 128.507277,176.294978 L128.113356,181.483428 C132.422778,178.202577 136.371106,174.903489 139.418523,171.848777 C153.034328,158.183732 160.166851,144.593458 163.684784,136.34665 C162.537672,133.014735 161.034936,129.856072 159.13828,126.987379 C144.771106,105.449385 140.957732,103.538139 140.957732,103.538139 C140.957732,103.538139 159.690863,108.589811 175.600894,128.688899 C177.003325,124.904704 193.188735,79.33206 169.394815,44.2730934 C169.296334,44.125373 169.752261,44.1764369 169.927337,44.125373 C183.840407,40.0767408 185.144359,15.2852515 171.865939,5.36245512 C152.875666,-8.7968154 133.21062,9.56245512 133.21062,9.56245512 C123.112748,4.5144308 59.1717142,4.5144308 49.0866078,9.56245512" id="Fill-1"></path>
            <path d="M276.967702,58.2454338 L289.109951,58.2454338 L289.109951,81.5487773 C285.993234,83.9013609 282.382292,85.7086557 278.278948,86.9651907 C274.175605,88.2217256 270.046729,88.8527287 265.890498,88.8527287 C259.923325,88.8527287 254.563447,87.5816041 249.803568,85.0357074 C245.045514,82.4934582 241.312383,78.9645828 238.606,74.4527287 C235.89597,69.9372272 234.540954,64.838139 234.540954,59.1481694 C234.540954,53.4581998 235.89597,48.3572879 238.606,43.8436101 C241.312383,39.3299323 245.074693,35.8010569 249.885635,33.2588077 C254.702049,30.712911 260.116638,29.4417864 266.136699,29.4417864 C271.16831,29.4417864 275.734875,30.2916344 279.838219,31.9876831 C283.941562,33.681908 287.390194,36.1439141 290.178644,39.3700539 L281.64369,47.2502971 C277.540346,42.9281086 272.590802,40.7670144 266.79141,40.7670144 C263.125757,40.7670144 259.870438,41.5329718 257.027277,43.0648867 C254.182292,44.5968016 251.966486,46.7560721 250.381684,49.5463457 C248.793234,52.3366193 247.998097,55.5372272 247.998097,59.1481694 C247.998097,62.7044004 248.793234,65.8776527 250.381684,68.6661025 C251.966486,71.4563761 254.167702,73.63206 256.985331,75.1895068 C259.80296,76.7487773 263.016334,77.5275007 266.627277,77.5275007 C270.457064,77.5275007 273.900225,76.7086557 276.967702,75.0673183 L276.967702,58.2454338 Z" id="Fill-3"></path>
            <path d="M333.014632,43.8428806 C330.933781,42.1213001 327.895483,41.2586861 323.903386,41.2586861 L313.074207,41.2586861 L313.074207,61.2830022 L323.903386,61.2830022 C327.895483,61.2830022 330.933781,60.4076223 333.014632,58.6550387 C335.091836,56.9042788 336.131349,54.4422727 336.131349,51.2690205 C336.131349,48.0428806 335.091836,45.5662849 333.014632,43.8428806 L333.014632,43.8428806 Z M336.37755,87.8690205 L325.300346,71.865981 L324.643811,71.865981 L313.074207,71.865981 L313.074207,87.8690205 L299.77755,87.8690205 L299.77755,30.4276831 L324.643811,30.4276831 C329.730134,30.4276831 334.147155,31.2757074 337.894875,32.9699323 C341.640772,34.6678047 344.529526,37.0732758 346.553842,40.1918168 C348.576334,43.3103579 349.588492,47.0015433 349.588492,51.2690205 C349.588492,55.5364977 348.561745,59.2167408 346.510073,62.3061025 C344.458401,65.3972879 341.549587,67.7626375 337.772687,69.4057986 L350.657185,87.8690205 L336.37755,87.8690205 Z" id="Fill-5"></path>
            <polygon id="Fill-7" points="361.730559 87.8677439 375.027216 87.8677439 375.027216 30.4264065 361.730559 30.4264065"></polygon>
            <polygon id="Fill-9" points="436.816456 77.0363761 436.816456 87.8673791 386.597003 87.8673791 386.597003 79.2521816 418.10521 41.2588685 387.251714 41.2588685 387.251714 30.4260417 435.583629 30.4260417 435.583629 39.043063 404.157489 77.0363761"></polygon>
            <polygon id="Fill-10" points="498.44138 77.0363761 498.44138 87.8673791 448.221927 87.8673791 448.221927 79.2521816 479.730134 41.2588685 448.876638 41.2588685 448.876638 30.4260417 497.208553 30.4260417 497.208553 39.043063 465.782413 77.0363761"></polygon>
            <polygon id="Fill-11" points="510.256273 30.4267712 523.549283 30.4267712 523.549283 77.0371056 552.351106 77.0371056 552.351106 87.8681086 510.256273 87.8681086"></polygon>
            <polygon id="Fill-12" points="576.558097 67.5171664 576.558097 87.8679262 563.265088 87.8679262 563.265088 67.3530326 541.028614 30.4265889 555.140468 30.4265889 570.485149 55.9475615 585.82983 30.4265889 598.876638 30.4265889"></polygon>
            <polygon id="Fill-13" points="253.088432 128.623793 253.088432 143.80434 279.67445 143.80434 279.67445 154.473033 253.088432 154.473033 253.088432 175.396437 239.791775 175.396437 239.791775 117.955099 283.201501 117.955099 283.201501 128.623793"></polygon>
            <path d="M330.304055,162.718747 C333.039617,161.1613 335.187945,158.985616 336.743568,156.195343 C338.304663,153.406893 339.083386,150.233641 339.083386,146.67741 C339.083386,143.121179 338.304663,139.947926 336.743568,137.157653 C335.187945,134.367379 333.039617,132.193519 330.304055,130.634248 C327.568492,129.074978 324.504663,128.296255 321.114389,128.296255 C317.720468,128.296255 314.656638,129.074978 311.921076,130.634248 C309.185514,132.193519 307.040833,134.367379 305.481562,137.157653 C303.920468,139.947926 303.139921,143.121179 303.139921,146.67741 C303.139921,150.233641 303.920468,153.406893 305.481562,156.195343 C307.040833,158.985616 309.185514,161.1613 311.921076,162.718747 C314.656638,164.278017 317.720468,165.056741 321.114389,165.056741 C324.504663,165.056741 327.568492,164.278017 330.304055,162.718747 M304.989161,172.524826 C300.201927,169.955221 296.454207,166.411756 293.747824,161.899902 C291.037793,157.3844 289.684602,152.312668 289.684602,146.67741 C289.684602,141.042151 291.037793,135.968595 293.747824,131.454917 C296.454207,126.941239 300.201927,123.399598 304.989161,120.828169 C309.776395,118.256741 315.150863,116.971027 321.114389,116.971027 C327.076091,116.971027 332.437793,118.256741 337.195848,120.828169 C341.955726,123.399598 345.701623,126.941239 348.437185,131.454917 C351.172748,135.968595 352.540529,141.042151 352.540529,146.67741 C352.540529,152.312668 351.172748,157.3844 348.437185,161.899902 C345.701623,166.411756 341.955726,169.955221 337.195848,172.524826 C332.437793,175.098078 327.076091,176.381969 321.114389,176.381969 C315.150863,176.381969 309.776395,175.098078 304.989161,172.524826" id="Fill-14"></path>
            <path d="M395.786486,131.371938 C393.705635,129.650358 390.667337,128.787744 386.67524,128.787744 L375.846061,128.787744 L375.846061,148.81206 L386.67524,148.81206 C390.667337,148.81206 393.705635,147.93668 395.786486,146.184096 C397.86369,144.433337 398.903204,141.97133 398.903204,138.798078 C398.903204,135.571938 397.86369,133.095343 395.786486,131.371938 L395.786486,131.371938 Z M399.149404,175.398078 L388.072201,159.395039 L387.415666,159.395039 L375.846061,159.395039 L375.846061,175.398078 L362.549404,175.398078 L362.549404,117.956741 L387.415666,117.956741 C392.501988,117.956741 396.919009,118.804765 400.666729,120.49899 C404.412626,122.196862 407.30138,124.602334 409.325696,127.720875 C411.348188,130.839416 412.360346,134.530601 412.360346,138.798078 C412.360346,143.065555 411.333599,146.745799 409.281927,149.83516 C407.230255,152.926346 404.321441,155.291695 400.544541,156.934856 L413.429039,175.398078 L399.149404,175.398078 Z" id="Fill-15"></path>
            <path d="M436.11834,172.565677 C431.383994,170.021604 427.665453,166.494552 424.95907,161.980875 C422.249039,157.467197 420.894024,152.368109 420.894024,146.678139 C420.894024,140.988169 422.249039,135.887258 424.95907,131.371756 C427.665453,126.859902 431.383994,123.331027 436.11834,120.786954 C440.849039,118.242881 446.17062,116.971756 452.079435,116.971756 C457.054511,116.971756 461.553599,117.847136 465.574875,119.597896 C469.596152,121.348656 472.97366,123.865373 475.709222,127.148048 L467.177915,135.024644 C463.291593,130.538321 458.48065,128.296984 452.734146,128.296984 C449.176091,128.296984 446.006486,129.073884 443.218036,130.634978 C440.424115,132.192425 438.252079,134.368109 436.690985,137.158382 C435.131714,139.946832 434.351167,143.120084 434.351167,146.678139 C434.351167,150.23437 435.131714,153.405799 436.690985,156.194248 C438.252079,158.986346 440.424115,161.160206 443.218036,162.719476 C446.006486,164.278747 449.176091,165.05747 452.734146,165.05747 C458.48065,165.05747 463.291593,162.788777 467.177915,158.24592 L475.709222,166.12434 C472.97366,169.461726 469.583386,172.005799 465.536577,173.754735 C461.486122,175.505495 456.974267,176.382698 451.997368,176.382698 C446.141441,176.382698 440.849039,175.111574 436.11834,172.565677" id="Fill-16"></path>
            <polygon id="Fill-17" points="530.769526 164.729385 530.769526 175.398078 486.294754 175.398078 486.294754 117.956741 529.70448 117.956741 529.70448 128.62361 499.505696 128.62361 499.505696 141.095951 526.173781 141.095951 526.173781 151.436376 499.505696 151.436376 499.505696 164.729385"></polygon>
        </g>
    </g>
</svg>